<?xml version="1.0" encoding="utf-8"?>
<!-- Generated by IcoMoon.io -->
<!DOCTYPE svg PUBLIC "-//W3C//DTD SVG 1.1//EN" "http://www.w3.org/Graphics/SVG/1.1/DTD/svg11.dtd">
<svg version="1.1" xmlns="http://www.w3.org/2000/svg" xmlns:xlink="http://www.w3.org/1999/xlink" width="20" height="20" viewBox="0 0 20 20">
<g id="icomoon-ignore">
	<line stroke-width="1" x1="" y1="" x2="" y2="" stroke="#449FDB" opacity=""></line>
</g>
	<path d="M17.5 15v2.5h-2.5v-0.625h-10v0.625h-2.5v-2.5h0.625v-10h-0.625v-2.5h2.5v0.625h10v-0.625h2.5v2.5h-0.625v10h0.625zM3.125 16.875h1.25v-1.25h-1.25v1.25zM4.375 3.125h-1.25v1.25h1.25v-1.25zM15 4.375h-10v0.625h-0.625v10h0.625v0.625h10v-0.625h0.625v-10h-0.625v-0.625zM16.875 3.125h-1.25v1.25h1.25v-1.25zM15.625 15.625v1.25h1.25v-1.25h-1.25z" fill="#000000"></path>
</svg>
